<?xml version="1.0" encoding="UTF-8" standalone="no"?>
<!DOCTYPE svg PUBLIC "-//W3C//DTD SVG 1.1//EN" "http://www.w3.org/Graphics/SVG/1.1/DTD/svg11.dtd">
<svg width="100%" height="100%" viewBox="0 0 682 525" version="1.1" xmlns="http://www.w3.org/2000/svg" xmlns:xlink="http://www.w3.org/1999/xlink" xml:space="preserve" xmlns:serif="http://www.serif.com/" style="fill-rule:evenodd;clip-rule:evenodd;stroke-linecap:round;stroke-linejoin:round;">
    <g transform="matrix(1,0,0,1,-4347.36,-6471.38)">
        <g transform="matrix(1,0,0,1,4347.36,6471.38)">
            <rect x="161.871" y="274.589" width="370.298" height="6.237" style="fill:rgb(237,241,251);fill-rule:nonzero;"/>
            <rect x="172.339" y="282.724" width="368.069" height="6.237" style="fill:rgb(237,241,251);fill-rule:nonzero;"/>
            <rect x="172.169" y="285.943" width="354.686" height="102.987" style="fill:rgb(237,241,251);fill-rule:nonzero;"/>
            <rect x="189.758" y="291.221" width="55.437" height="23.988" style="fill:white;fill-rule:nonzero;"/>
            <path d="M201.778,300.837L201.778,305.602L211.475,305.602L212.585,303.172L222.377,303.172L223.486,305.602L233.184,305.602L233.184,300.837L201.778,300.837Z" style="fill:rgb(237,241,251);fill-rule:nonzero;"/>
            <rect x="189.758" y="321.626" width="55.437" height="52.144" style="fill:white;fill-rule:nonzero;"/>
            <rect x="262.153" y="291.05" width="55.437" height="23.988" style="fill:white;fill-rule:nonzero;"/>
            <rect x="262.153" y="321.446" width="55.437" height="52.144" style="fill:white;fill-rule:nonzero;"/>
            <rect x="165.642" y="280.826" width="6.697" height="155.559" style="fill:rgb(237,241,251);fill-rule:nonzero;"/>
            <path d="M201.778,331.328L201.778,335.998L211.475,335.998L212.585,333.663L222.377,333.663L223.486,335.998L233.184,335.998L233.184,331.328L201.778,331.328Z" style="fill:rgb(237,241,251);fill-rule:nonzero;"/>
            <path d="M274.823,300.837L274.823,305.602L284.52,305.602L285.63,303.172L295.411,303.172L296.531,305.602L306.228,305.602L306.228,300.837L274.823,300.837Z" style="fill:rgb(237,241,251);fill-rule:nonzero;"/>
            <path d="M274.164,331.28L274.164,336.046L283.861,336.046L284.98,333.615L294.762,333.615L295.872,336.046L305.569,336.046L305.569,331.28L274.164,331.28Z" style="fill:rgb(237,241,251);fill-rule:nonzero;"/>
            <path d="M425.697,262.429L298.223,262.429C295.685,262.424 293.253,261.404 291.458,259.593C289.664,257.782 288.653,255.327 288.648,252.765L288.648,181.313C288.651,178.75 289.66,176.292 291.455,174.479C293.25,172.666 295.684,171.645 298.223,171.64L425.603,171.64C428.143,171.645 430.577,172.666 432.372,174.479C434.166,176.292 435.176,178.75 435.178,181.313L435.178,252.765C435.188,255.315 434.196,257.764 432.418,259.576C430.641,261.388 428.224,262.414 425.697,262.429Z" style="fill:rgb(237,241,251);fill-rule:nonzero;"/>
            <rect x="295.75" y="178.417" width="131.941" height="69.583" style="fill:white;fill-rule:nonzero;"/>
            <path d="M361.908,257.815C363.394,257.815 364.598,256.6 364.598,255.1C364.598,253.601 363.394,252.385 361.908,252.385C360.423,252.385 359.219,253.601 359.219,255.1C359.219,256.6 360.423,257.815 361.908,257.815Z" style="fill:white;fill-rule:nonzero;stroke:rgb(251,252,254);stroke-width:1.59px;"/>
            <path d="M374.634,262.429L349.239,262.429C349.239,262.429 347.668,267.346 340.557,270.972L340.557,274.599L383.362,274.599L383.362,270.972C376.205,267.27 374.634,262.429 374.634,262.429Z" style="fill:white;fill-rule:nonzero;stroke:rgb(237,241,251);stroke-width:1.59px;"/>
            <path d="M285.554,463.809C285.554,445.308 372.02,428.439 478.708,426.028C585.395,423.617 672.021,436.47 672.171,454.962C672.322,473.454 585.715,490.38 479.018,492.658C372.321,494.936 285.554,482.301 285.554,463.809Z" style="fill:url(#_Linear1);fill-rule:nonzero;"/>
            <path d="M0,465.062C0,458.37 47.649,452.276 106.453,451.402C165.256,450.529 212.99,455.199 213.075,461.844C213.159,468.489 165.426,474.66 106.622,475.504C47.818,476.349 0,471.707 0,465.062Z" style="fill:url(#_Linear2);fill-rule:nonzero;"/>
            <path d="M667.609,184.635C665.916,182.262 664.129,179.794 662.436,177.421C654.723,166.409 647.105,155.397 639.486,144.386C638.816,143.445 638.454,142.317 638.452,141.158C638.264,136.507 638.264,131.76 638.264,127.014C638.169,120.749 634.031,115.812 627.917,115.053C627.627,114.987 627.343,114.891 627.071,114.768L626.413,114.768C626.189,114.788 625.963,114.756 625.754,114.673L625.566,114.863C625.378,114.863 625.284,114.768 625.096,114.768C624.603,114.928 624.1,115.055 623.591,115.148C623.364,115.225 623.144,115.32 622.932,115.433C617.289,117.616 614.656,121.508 614.656,127.583C614.656,132.14 614.656,136.697 614.561,141.253C614.54,142.335 614.214,143.389 613.621,144.291C607.507,153.404 601.206,162.422 594.998,171.44C592.176,175.522 589.355,179.699 586.439,183.781C584.746,186.059 584.934,187.198 587.662,187.958C589.535,188.516 591.456,188.898 593.399,189.097C604.826,190.398 616.326,190.937 627.823,190.711C639.204,190.616 650.585,190.426 661.871,188.717C663.631,188.385 665.361,187.909 667.045,187.293C668.173,186.819 668.361,185.774 667.609,184.635ZM666.104,187.008C664.22,187.619 662.305,188.126 660.367,188.527C645.036,190.426 629.61,190.521 614.185,190.141C606.285,189.951 598.384,188.812 590.483,188.053C589.345,187.806 588.24,187.424 587.191,186.913C587.18,186.719 587.212,186.524 587.285,186.344C587.897,186.001 588.567,185.775 589.261,185.679C593.963,185.015 598.666,184.255 603.463,183.876C616.829,182.9 630.243,182.773 643.625,183.496C650.303,183.876 656.981,184.635 663.659,185.395C664.478,185.613 665.267,185.932 666.01,186.344C666.104,186.439 666.104,186.724 666.104,187.008Z" style="fill:rgb(237,241,251);fill-rule:nonzero;"/>
            <path d="M619.453,7.784C619.265,9.873 620.3,11.107 622.181,11.771C623.215,12.151 624.344,12.341 625.567,12.72L625.567,12.91C625.849,12.815 626.131,12.815 626.413,12.72L626.507,12.72L626.507,12.531C627.206,12.457 627.897,12.33 628.577,12.151C631.586,11.391 632.527,10.157 632.527,7.12L632.527,4.367C632.532,3.696 632.349,3.037 631.999,2.466C631.65,1.895 631.148,1.435 630.552,1.139C629.483,0.551 628.31,0.181 627.1,0.051C625.889,-0.079 624.665,0.032 623.498,0.38C619.829,1.329 619.453,2.848 619.641,5.411C619.537,6.198 619.474,6.99 619.453,7.784Z" style="fill:rgb(237,241,251);fill-rule:nonzero;"/>
            <rect x="624.814" y="12.436" width="2.257" height="102.712" style="fill:rgb(237,241,251);fill-rule:nonzero;"/>
            <path d="M613.386,495.81C651.281,495.81 682,493.812 682,491.348C682,488.884 651.281,486.886 613.386,486.886C575.492,486.886 544.772,488.884 544.772,491.348C544.772,493.812 575.492,495.81 613.386,495.81Z" style="fill:url(#_Linear3);fill-rule:nonzero;"/>
            <path d="M375.189,347.247L369.17,347.342L369.17,348.291L375.189,348.291L375.189,347.247Z" style="fill:rgb(254,254,254);fill-rule:nonzero;"/>
            <path d="M435.762,366.802L402.842,343.26L334.745,344.779L332.488,344.304L331.83,262.666L317.721,268.457L317.533,340.887L319.32,348.766L319.32,349.715L319.038,350.285L318.098,351.709L320.919,356.17L324.681,362.056L330.231,367.087C330.231,367.087 335.968,368.321 338.696,368.131C341.423,367.941 355.062,368.701 355.062,368.701" style="fill:rgb(218,218,218);fill-rule:nonzero;"/>
            <path d="M571.861,465.243C574.457,463.233 576.795,460.906 578.821,458.313C586.439,448.536 589.919,436.195 593.682,424.519C598.008,411.324 602.147,398.034 603.84,384.269C607.809,350.829 602.126,316.942 587.474,286.683C587.474,286.683 567.628,266.653 533.298,256.591C495.111,245.389 453.726,236.466 413.846,240.548C377.005,244.348 341.823,257.945 311.89,279.953C283.579,300.837 260.535,327.701 252.164,363.394C240.689,412.093 266.084,464.493 312.078,481.485C326.468,486.801 341.894,488.7 357.225,490.124C397.104,493.826 437.454,494.585 477.334,490.124C495.393,488.13 512.605,484.238 530.288,480.251C544.584,477.014 560.198,474.451 571.861,465.243Z" style="fill:url(#_Linear4);fill-rule:nonzero;"/>
            <path d="M563.396,378.289C557.376,382.94 555.213,391.484 551.639,398.129C547.212,406.293 542.214,414.128 536.684,421.576C533.298,426.132 527.654,430.974 522.763,428.126C520.224,426.607 519.095,423.569 518.625,420.627C517.402,413.032 519.377,405.248 519.283,397.464C519.396,396.35 519.095,395.233 518.437,394.331C516.932,392.718 514.298,394.142 512.605,395.566C496.24,409.235 481.473,423 461.345,430.784C442.157,438.188 421.841,441.701 401.995,446.827C372.18,454.706 332.77,460.876 306.246,476.824C375.001,489.45 455.607,496.189 532.827,477.678C547.688,474.071 555.213,470.369 568.475,462.585C582.113,454.516 589.355,440.277 593.964,425.373C597.752,413.354 599.873,400.863 600.265,388.256C600.454,380.662 601.77,358.828 594.434,354.177C594.219,354.258 594.024,354.384 593.861,354.548C593.699,354.712 593.574,354.909 593.493,355.126" style="fill:url(#_Linear5);fill-rule:nonzero;"/>
            <path d="M506.585,250.525C507.526,249.101 522.199,253.088 523.61,253.373C536.608,256.218 549.167,260.815 560.95,267.042C572.236,273.118 591.236,280.142 598.196,291.249C605.438,302.83 610.047,316.405 610.141,329.98C610.423,359.882 607.131,392.632 594.716,419.972C573.93,465.822 527.936,480.82 481.378,484.997C478.369,485.282 475.359,485.472 472.349,485.662C430.118,488.225 301.167,476.454 301.167,476.454L292.984,417.693L384.407,399.182L458.617,323.714L506.585,250.525Z" style="fill:rgb(62,140,252);fill-rule:nonzero;"/>
            <path d="M545.431,283.266C538.471,289.531 500.19,337.375 496.051,347.342C491.913,357.309 550.604,279.563 545.431,283.266Z" style="fill:url(#_Linear6);fill-rule:nonzero;"/>
            <path d="M466.236,352.848C434.821,363.005 417.327,411.134 408.673,417.399C400.02,423.664 503.012,502.455 568.38,420.911C593.023,390.155 617.478,352.278 607.602,309.561C604.874,297.884 599.513,286.968 591.236,278.329C570.356,256.686 529.629,246.623 501.319,242.257C391.649,225.549 440.652,250.136 440.652,250.136" style="fill:url(#_Linear7);fill-rule:nonzero;"/>
            <path d="M218.774,454.516L249.437,436.29L323.835,389.3C323.835,389.3 330.043,376.01 334.087,374.681C338.131,373.352 345.468,365.188 345.468,365.188L373.308,362.436C373.308,362.436 388.075,368.226 395.412,367.657C402.748,367.087 451.093,369.365 451.093,369.365C451.093,369.365 465.86,371.074 453.35,394.237C440.841,417.399 392.026,420.911 385.159,421.481C378.293,422.05 356.755,422.145 348.854,430.404C340.953,438.663 269.377,468.186 269.377,468.186L231.19,483.659L218.774,454.516Z" style="fill:url(#_Linear8);fill-rule:nonzero;"/>
            <path d="M333.429,359.683L317.157,330.635L319.32,346.962L319.32,351.614L327.597,364.714L331.642,367.372" style="fill:rgb(218,218,218);fill-rule:nonzero;"/>
            <path d="M169,515.175C169,509.194 215.228,503.859 272.283,503.204C329.337,502.549 375.659,507.002 375.659,512.963C375.659,518.925 329.431,524.288 272.386,524.933C215.341,525.579 169.103,521.165 169,515.175Z" style="fill:url(#_Linear9);fill-rule:nonzero;"/>
            <rect x="333.485" y="354.158" width="12.886" height="5.506" style="fill:rgb(211,211,211);fill-rule:nonzero;"/>
            <path d="M472.349,342.406C472.349,342.406 486.552,325.129 482.695,305.004L472.349,342.406Z" style="fill:rgb(1,56,91);fill-rule:nonzero;"/>
            <path d="M468.305,231.814C479.968,236.371 493.888,238.175 503.576,246.149C506.209,248.332 508.749,250.705 509.972,253.838C511.288,257.255 510.818,261.052 510.254,264.565C507.62,282.506 490.22,284.025 486.458,301.777C483.542,315.731 483.824,339.463 478.557,352.658C473.478,365.378 468.399,381.896 456.454,381.896C447.425,381.896 440.558,369.84 431.529,369.081" style="fill:rgb(36,58,127);fill-rule:nonzero;"/>
            <path d="M471.785,250.136L445.637,256.22L441.499,253.752L435.855,250.24L441.123,235.336C441.123,235.336 417.232,233.153 411.589,242.361C408.015,248.247 400.302,272.358 395.788,303.305C393.718,317.449 380.927,331.498 381.491,332.353C382.432,333.777 381.867,336.72 381.867,336.72L388.828,340.991L392.59,343.175L394.095,343.459L403.218,347.067C403.218,347.067 410.931,352.003 416.48,350.009L429.366,350.864" style="fill:rgb(36,58,127);fill-rule:nonzero;"/>
            <path d="M296.841,474.166L297.405,445.783L290.727,380.576L327.597,385.038L354.873,366.052L327.597,338.713C327.597,338.713 279.911,331.878 277.089,331.878C274.267,331.878 241.348,325.613 245.298,360.547C249.248,395.48 256.302,438.198 256.302,438.198L264.015,474.175L296.841,474.166Z" style="fill:url(#_Linear10);fill-rule:nonzero;"/>
            <path d="M421.653,352.183C421.653,352.373 421.277,352.658 421.653,352.848C422.029,353.038 421.935,352.658 421.935,352.468C421.747,352.373 421.747,352.278 421.653,352.183Z" style="fill:rgb(218,218,218);fill-rule:nonzero;"/>
            <path d="M431.623,356.645C431.623,357.026 431.811,357.121 432.187,357.121C432.093,356.74 431.999,356.55 431.623,356.645Z" style="fill:rgb(218,218,218);fill-rule:nonzero;"/>
            <path d="M401.055,363.86L344.621,363.86C344.151,363.86 343.775,363.954 343.681,364.524C343.587,365.094 344.057,365.094 344.433,365.283C344.924,365.414 345.435,365.446 345.938,365.378L372.838,365.378C374.815,365.304 376.795,365.367 378.764,365.568L379.422,365.568C381.679,365.094 383.937,365.473 386.1,365.378L387.699,365.378C388.035,365.484 388.382,365.547 388.733,365.568L391.461,365.568C392.196,365.368 392.961,365.304 393.718,365.378C395.823,365.283 397.932,365.378 400.02,365.663C401.525,365.568 401.713,365.189 401.055,363.86Z" style="fill:rgb(211,211,211);fill-rule:nonzero;"/>
            <path d="M321.389,305.289C321.107,308.161 321.107,311.055 321.389,313.927C321.483,314.782 321.483,316.206 321.954,316.206C322.894,316.206 322.424,314.972 322.518,314.307C322.706,312.314 322.706,310.32 322.706,308.327L322.706,304.34C322.706,303.865 322.612,303.295 322.048,303.295C321.295,303.295 321.483,303.96 321.483,304.34C321.295,304.634 321.389,304.909 321.389,305.289Z" style="fill:rgb(254,254,254);fill-rule:nonzero;"/>
            <path d="M430.87,365.948L437.548,365.948C437.454,365.283 436.984,365.473 436.514,365.473L427.672,365.473C427.39,365.473 426.826,365.283 426.826,365.758C426.826,366.233 427.296,366.138 427.766,366.043C428.792,365.874 429.836,365.842 430.87,365.948Z" style="fill:rgb(254,254,254);fill-rule:nonzero;"/>
            <path d="M387.699,355.031C385.63,355.031 383.654,354.462 381.585,355.031C381.199,355.079 380.82,355.174 380.457,355.316L380.457,355.791C381.213,355.914 381.988,355.849 382.714,355.601C383.49,355.449 384.276,355.354 385.065,355.316C385.756,355.257 386.452,355.289 387.134,355.411C387.511,355.506 387.605,355.316 387.699,355.031Z" style="fill:rgb(254,254,254);fill-rule:nonzero;"/>
            <path d="M367.101,358.259L366.912,358.259C366.902,358.372 366.869,358.482 366.816,358.582C366.763,358.683 366.69,358.771 366.602,358.843C366.515,358.915 366.414,358.968 366.306,358.999C366.197,359.031 366.084,359.041 365.972,359.028L362.304,359.028C361.927,359.028 361.457,358.933 361.175,359.407C363.338,359.407 365.502,359.882 367.571,359.312L367.571,358.648C367.383,358.354 367.289,358.259 367.101,358.259Z" style="fill:rgb(254,254,254);fill-rule:nonzero;"/>
            <path d="M359.106,359.208C359.113,359.091 359.075,358.976 359,358.887C358.924,358.798 358.817,358.743 358.701,358.733L358.635,358.733C356.66,359.303 354.591,358.733 352.616,359.303C354.779,359.303 356.942,359.778 359.106,359.208Z" style="fill:rgb(254,254,254);fill-rule:nonzero;"/>
            <path d="M383.654,358.449C383.466,359.113 382.902,358.923 382.432,358.923L378.105,358.923C378.105,359.588 378.576,359.398 378.764,359.398L383.09,359.398C383.843,359.398 384.125,359.208 384.031,358.449L383.654,358.449Z" style="fill:rgb(254,254,254);fill-rule:nonzero;"/>
            <path d="M385.065,355.316C384.313,355.126 383.56,355.601 382.714,355.601C383.672,356.275 384.852,356.547 386.006,356.36C385.818,355.981 385.065,355.981 385.065,355.316Z" style="fill:rgb(211,211,211);fill-rule:nonzero;"/>
            <path d="M413.282,363.29C413.361,363.286 413.438,363.267 413.509,363.233C413.58,363.199 413.644,363.151 413.697,363.092C413.749,363.032 413.789,362.963 413.815,362.888C413.841,362.813 413.852,362.733 413.847,362.654C413.847,361.895 413.094,362.084 412.718,361.989C412.342,361.895 412.059,362.274 412.059,362.749C412.248,363.489 413.188,362.436 413.282,363.29Z" style="fill:rgb(211,211,211);fill-rule:nonzero;"/>
            <path d="M386.664,358.164C387.134,359.113 388.263,358.638 388.922,359.113C389.11,359.208 389.204,358.828 389.204,358.638C389.204,358.449 389.016,357.879 388.545,358.069C387.991,358.2 387.418,358.232 386.852,358.164C386.83,358.142 386.799,358.129 386.768,358.129C386.736,358.129 386.706,358.142 386.683,358.164L386.664,358.164Z" style="fill:rgb(211,211,211);fill-rule:nonzero;"/>
            <path d="M350.359,359.113C349.136,358.733 348.101,359.018 346.878,358.828C347.389,359.164 347.975,359.366 348.583,359.415C349.19,359.465 349.801,359.361 350.359,359.113Z" style="fill:rgb(254,254,254);fill-rule:nonzero;"/>
            <path d="M393.624,358.923L390.521,358.923C390.965,359.27 391.511,359.458 392.073,359.458C392.634,359.458 393.18,359.27 393.624,358.923Z" style="fill:rgb(254,254,254);fill-rule:nonzero;"/>
            <path d="M435.009,362.436C435.103,363.1 435.856,362.72 436.232,363.005C436.608,363.29 436.514,362.72 436.608,362.531C436.702,361.771 436.138,362.056 435.762,362.056C435.385,362.056 435.009,361.771 435.009,362.436Z" style="fill:rgb(211,211,211);fill-rule:nonzero;"/>
            <path d="M383.655,358.449L384.125,358.449L384.125,358.354C384.031,357.689 383.467,357.309 382.902,356.93C382.902,356.93 382.62,357.025 382.62,357.12C382.432,357.974 383.278,358.069 383.655,358.449Z" style="fill:rgb(211,211,211);fill-rule:nonzero;"/>
            <path d="M388.733,365.663C388.398,365.556 388.05,365.492 387.699,365.473C387.699,365.758 387.605,366.138 387.981,366.233C388.066,366.248 388.154,366.245 388.238,366.225C388.322,366.205 388.402,366.169 388.472,366.117C388.542,366.066 388.601,366.001 388.646,365.926C388.691,365.852 388.721,365.769 388.733,365.682L388.733,365.663Z" style="fill:rgb(254,254,254);fill-rule:nonzero;"/>
            <path d="M367.571,358.449L367.571,359.113C367.947,358.923 368.229,358.638 367.947,358.259C367.853,358.164 367.665,358.354 367.571,358.449Z" style="fill:rgb(211,211,211);fill-rule:nonzero;"/>
            <path d="M418.267,352.468C418.173,352.563 417.985,352.563 417.985,352.658C417.989,352.733 418.02,352.803 418.072,352.855C418.124,352.908 418.193,352.939 418.267,352.944C418.455,352.944 418.455,352.849 418.549,352.754C418.455,352.658 418.267,352.563 418.267,352.468Z" style="fill:rgb(211,211,211);fill-rule:nonzero;"/>
            <path d="M406.228,350.096C406.416,350.096 406.698,350.191 406.886,349.906C406.882,349.857 406.861,349.811 406.826,349.776C406.792,349.741 406.747,349.72 406.698,349.715C406.322,349.62 406.228,349.81 406.228,350.096Z" style="fill:rgb(211,211,211);fill-rule:nonzero;"/>
            <path d="M385.159,357.405L385.63,357.405C385.536,357.215 385.536,357.025 385.441,357.025C385.159,356.93 385.159,357.215 385.159,357.405Z" style="fill:rgb(211,211,211);fill-rule:nonzero;"/>
            <path d="M411.683,361.011C411.777,361.106 411.777,361.011 411.777,361.011C411.777,361.011 411.777,360.917 411.683,361.011Z" style="fill:rgb(254,254,254);fill-rule:nonzero;"/>
            <path d="M351.958,359.208C351.958,359.303 352.052,359.398 352.052,359.493L352.146,359.398C352.052,359.398 352.052,359.303 351.958,359.208Z" style="fill:rgb(211,211,211);fill-rule:nonzero;"/>
            <path d="M319.508,349.81C319.602,349.905 319.414,350.286 319.79,350.096L319.508,349.81Z" style="fill:rgb(254,254,254);fill-rule:nonzero;"/>
            <path d="M319.32,349.62L319.602,349.906C319.508,349.715 319.414,349.715 319.32,349.62Z" style="fill:rgb(254,254,254);fill-rule:nonzero;"/>
            <path d="M386.288,351.614C386.298,351.686 386.331,351.753 386.382,351.804C386.476,351.804 386.57,351.804 386.57,351.709C386.57,351.614 386.476,351.614 386.476,351.519C386.476,351.424 386.288,351.519 386.288,351.614Z" style="fill:rgb(218,218,218);fill-rule:nonzero;"/>
            <path d="M359.764,355.601L362.116,355.601C362.398,355.601 362.68,355.601 362.774,355.316C362.868,355.031 362.68,354.936 362.492,354.841C361.269,353.892 360.046,352.943 358.918,351.994C357.037,350.475 355.249,348.956 353.368,347.437C352.71,346.867 351.958,346.393 351.299,345.823C350.923,345.538 350.453,345.254 350.359,344.779C350.17,343.735 349.324,343.925 348.76,344.02C348.483,344.125 348.185,344.162 347.891,344.129C347.596,344.096 347.314,343.994 347.067,343.83C346.351,343.519 345.548,343.485 344.809,343.735C344.151,343.83 344.245,344.494 344.715,344.779C347.913,347.247 350.641,350.38 353.933,352.753C354.238,352.978 354.522,353.232 354.779,353.512C357.131,355.98 356.284,355.506 359.764,355.601Z" style="fill:rgb(218,218,218);fill-rule:nonzero;"/>
            <path d="M359.952,358.449C360.046,357.784 360.705,358.259 361.081,358.164C362.68,358.164 364.373,357.974 365.972,357.974C365.314,357.025 361.739,353.987 360.423,354.272C358.917,354.34 357.409,354.308 355.908,354.177C355.532,354.177 357.413,356.265 357.883,356.645L358.542,357.309C358.824,357.499 359.576,358.259 359.952,358.449Z" style="fill:rgb(218,218,218);fill-rule:nonzero;"/>
            <path d="M343.399,355.221L346.408,355.221C345.41,355.079 344.397,355.079 343.399,355.221Z" style="fill:rgb(218,218,218);fill-rule:nonzero;"/>
            <path d="M373.591,347.533C373.685,347.438 373.873,347.438 373.873,347.343C373.868,347.268 373.837,347.198 373.785,347.146C373.733,347.093 373.664,347.062 373.591,347.057C373.543,347.063 373.498,347.085 373.464,347.12C373.43,347.154 373.409,347.199 373.403,347.248C373.403,347.352 373.497,347.438 373.591,347.533Z" style="fill:rgb(211,211,211);fill-rule:nonzero;"/>
            <path d="M433.974,359.303L407.921,347.627L400.396,348.576L382.338,350.475L394.095,358.354L398.797,360.442L400.396,365.094L425.98,367.846L437.549,367.182L437.266,360.442L433.974,359.303Z" style="fill:rgb(218,218,218);fill-rule:nonzero;"/>
            <path d="M387.699,354.841L380.175,354.936L380.175,355.791L387.699,355.791L387.699,354.841Z" style="fill:rgb(254,254,254);fill-rule:nonzero;"/>
            <path d="M384.124,358.449L376.506,358.544L376.506,359.493L384.124,359.493L384.124,358.449Z" style="fill:rgb(254,254,254);fill-rule:nonzero;"/>
            <path d="M372.932,358.449L365.408,358.544L365.408,359.493L372.932,359.493L372.932,358.449Z" style="fill:rgb(254,254,254);fill-rule:nonzero;"/>
            <path d="M367.006,358.449L359.388,358.544L359.388,359.493L367.006,359.493L367.006,358.449Z" style="fill:rgb(254,254,254);fill-rule:nonzero;"/>
            <path d="M373.967,346.013L367.947,346.108L367.947,346.962L373.967,346.962L373.967,346.013Z" style="fill:rgb(254,254,254);fill-rule:nonzero;"/>
            <path d="M371.051,349.241L365.031,349.335L365.031,350.19L371.051,350.19L371.051,349.241Z" style="fill:rgb(254,254,254);fill-rule:nonzero;"/>
            <path d="M377.541,353.702L371.615,353.797L371.615,354.746L377.541,354.746L377.541,353.702Z" style="fill:rgb(254,254,254);fill-rule:nonzero;"/>
            <rect x="334.774" y="343.051" width="37.81" height="1.709" style="fill:rgb(218,218,218);fill-rule:nonzero;"/>
            <rect x="333.259" y="353.731" width="13.074" height="6.834" style="fill:rgb(218,218,218);fill-rule:nonzero;"/>
            <rect x="331.679" y="330.397" width="1.787" height="12.056" style="fill:rgb(218,218,218);fill-rule:nonzero;"/>
            <path d="M440.276,360.727L402.277,342.786L401.995,343.735L422.688,353.607L437.266,360.442L440.276,360.727Z" style="fill:rgb(211,211,211);fill-rule:nonzero;"/>
            <path d="M402.277,342.786L374.437,342.975L371.803,343.07L372.556,343.165L402.465,343.925L402.277,342.786Z" style="fill:rgb(211,211,211);fill-rule:nonzero;"/>
            <path d="M417.609,277.285L409.708,305.099L408.391,305.574L417.609,277.285Z" style="fill:rgb(23,42,114);fill-rule:nonzero;"/>
            <path d="M358.259,355.601L361.175,355.601C360.235,355.031 359.2,354.272 358.448,354.272C358.165,354.272 358.259,354.946 358.259,355.601Z" style="fill:rgb(218,218,218);fill-rule:nonzero;"/>
            <path d="M440.276,360.727C440.276,360.157 439.618,360.252 439.147,360.157C438.207,359.018 436.608,358.923 435.385,358.164C434.422,357.536 433.327,357.146 432.187,357.025C431.811,357.025 431.623,356.93 431.623,356.55C429.648,355.696 427.767,354.841 425.791,353.987C424.534,353.311 423.21,352.77 421.841,352.373C421.841,352.563 421.747,352.943 421.559,352.753C421.183,352.563 421.559,352.373 421.559,352.088C419.946,351.811 418.408,351.196 417.044,350.285C412.529,347.342 407.545,345.538 402.748,343.165C402.546,343.032 402.324,342.936 402.089,342.88C398.891,342.975 395.693,342.596 392.496,342.88C391.277,343.022 390.046,343.022 388.827,342.88C386.611,342.616 384.373,342.584 382.149,342.785C378.857,343.07 375.66,342.88 372.368,342.975L333.428,342.975C333.617,340.317 332.864,340.317 333.24,337.659C333.334,330.445 333.428,332.913 333.428,331.964L333.428,263.9C333.428,262.951 333.711,261.622 332.77,261.242C331.641,260.673 330.231,261.242 329.29,262.002C328.179,262.868 326.895,263.483 325.528,263.805C323.176,264.565 320.919,265.704 318.662,266.653C317.345,267.223 316.969,268.647 316.969,270.071L316.969,326.553C316.969,328.451 317.157,330.255 317.251,332.059C317.052,332.538 316.987,333.063 317.063,333.577C317.063,336.615 317.157,339.748 317.063,342.785C316.931,344.593 317.467,346.385 318.568,347.817C318.99,348.267 319.282,348.825 319.414,349.43C317.815,349.905 317.439,351.139 318.379,352.658C319.884,355.126 321.671,357.499 323.082,360.062C324.54,362.417 326.384,364.504 328.538,366.233C329.948,367.467 331.829,367.657 333.617,368.131C336.814,368.986 340.106,368.606 343.304,368.701C346.502,368.796 349.512,368.891 352.71,368.891C375.283,368.891 397.951,368.986 420.524,368.891C426.356,368.891 432.093,368.796 437.925,368.321C439.524,368.226 439.523,367.277 439.9,366.328L439.712,366.138C439.76,366.142 439.805,366.163 439.84,366.198C439.874,366.233 439.895,366.279 439.9,366.328C441.028,364.714 440.182,362.625 440.276,360.727ZM319.79,350.095C319.414,350.38 319.602,350 319.508,349.81L319.79,350.095C319.863,350.098 319.934,350.116 319.999,350.149C320.064,350.181 320.121,350.228 320.167,350.285C320.121,350.228 320.064,350.181 319.999,350.149C319.934,350.116 319.863,350.098 319.79,350.095ZM321.954,316.111C321.483,316.111 321.389,314.687 321.389,313.832C321.201,310.985 321.954,308.137 321.389,305.194L321.389,304.15C321.389,303.77 321.201,303.106 321.954,303.106C322.706,303.106 322.612,303.58 322.612,304.15L322.612,308.137C322.612,310.13 322.612,312.124 322.424,314.117C322.424,314.877 322.8,316.111 321.954,316.111ZM386.476,351.519C386.486,351.591 386.519,351.657 386.57,351.709C386.57,351.804 386.476,351.804 386.382,351.804C386.372,351.732 386.339,351.665 386.288,351.614C386.288,351.519 386.382,351.519 386.476,351.519ZM373.59,347.057C373.778,347.057 373.967,347.152 373.872,347.342C373.778,347.532 373.684,347.437 373.59,347.532C373.496,347.437 373.402,347.342 373.402,347.247C373.402,347.152 373.59,347.057 373.59,347.057ZM374.719,358.543C374.813,358.543 374.907,358.449 375.095,358.449C375.001,358.354 374.907,358.164 374.813,358.069C374.907,358.164 375.001,358.354 375.095,358.449C375.324,358.64 375.577,358.799 375.848,358.923C375.754,359.113 375.001,358.733 374.719,358.543ZM383.09,359.493L378.763,359.493C378.481,359.493 378.105,359.683 378.105,359.018L382.432,359.018C382.902,359.018 383.372,359.208 383.654,358.543C383.278,358.164 382.432,358.069 382.62,357.215C382.62,357.12 382.808,357.025 382.902,357.025C383.211,357.134 383.486,357.323 383.701,357.573C383.915,357.822 384.061,358.124 384.125,358.449L384.125,358.543C384.125,359.208 383.842,359.493 383.09,359.493ZM384.407,358.069C384.401,357.976 384.432,357.885 384.491,357.814C384.551,357.744 384.635,357.699 384.727,357.689L384.783,357.689C384.783,357.879 384.783,358.164 384.407,358.069ZM387.228,355.411C386.552,355.242 385.848,355.21 385.159,355.316C385.065,355.98 385.818,355.98 386.1,356.36C384.949,356.494 383.787,356.226 382.808,355.601C382.082,355.849 381.307,355.914 380.55,355.791L380.55,355.316C380.901,355.137 381.287,355.04 381.679,355.031C383.748,355.126 385.724,355.031 387.793,355.031C387.605,355.316 387.511,355.506 387.228,355.411ZM387.699,355.031C387.417,354.272 386.664,353.987 386.1,353.607C386.664,353.987 387.417,354.272 387.699,355.031ZM388.921,359.113C388.923,358.716 388.826,358.324 388.639,357.974C389.015,357.974 389.11,358.354 389.204,358.638C389.298,358.923 388.921,359.303 388.921,359.113ZM393.624,358.923C393.18,359.27 392.634,359.457 392.072,359.457C391.511,359.457 390.965,359.27 390.52,358.923L393.624,358.923C393.856,358.932 394.081,358.997 394.283,359.113C394.078,359.007 393.854,358.943 393.624,358.923ZM405.193,349.81C405.503,350.004 405.863,350.103 406.228,350.095C405.861,350.121 405.496,350.02 405.193,349.81ZM406.228,350.095C406.228,349.81 406.322,349.62 406.698,349.62C406.792,349.62 406.886,349.81 406.886,349.81C406.698,350.19 406.416,350.095 406.228,350.095ZM411.683,361.107L411.683,360.917C411.694,360.915 411.705,360.916 411.716,360.919C411.727,360.923 411.737,360.928 411.746,360.935C411.754,360.942 411.762,360.951 411.767,360.961C411.772,360.97 411.776,360.981 411.777,360.993C411.755,360.992 411.734,361 411.716,361.013C411.699,361.027 411.687,361.047 411.683,361.069L411.683,361.107ZM413.282,363.29C413.188,362.53 412.247,363.48 412.059,362.625C412.018,362.473 412.037,362.311 412.113,362.173C412.188,362.034 412.314,361.931 412.464,361.885C412.547,361.866 412.634,361.866 412.718,361.885C413.094,361.98 413.846,361.79 413.846,362.549C413.846,362.929 413.752,363.214 413.282,363.309L413.282,363.29ZM418.173,352.943C418.107,352.949 418.042,352.929 417.99,352.889C417.937,352.848 417.902,352.79 417.891,352.724L417.891,352.667C417.891,352.573 418.079,352.573 418.173,352.478C418.267,352.573 418.361,352.667 418.361,352.762C418.355,352.81 418.333,352.853 418.298,352.886C418.264,352.919 418.22,352.939 418.173,352.943ZM435.667,361.961C436.043,361.961 436.608,361.676 436.514,362.436C436.514,362.72 436.42,363.1 436.137,362.91C435.855,362.72 435.009,363.005 434.915,362.341C435.009,361.771 435.291,361.961 435.667,361.961ZM437.548,365.948L430.87,365.948C429.867,365.842 428.855,365.874 427.861,366.043C427.484,366.138 427.014,366.233 426.92,365.758C426.826,365.283 427.484,365.473 427.767,365.473L436.608,365.473C436.984,365.473 437.454,365.283 437.548,365.948C437.692,366.065 437.858,366.151 438.036,366.201C438.214,366.25 438.4,366.261 438.583,366.233C438.4,366.261 438.214,366.25 438.036,366.201C437.858,366.151 437.692,366.065 437.548,365.948Z" style="fill:rgb(218,218,218);fill-rule:nonzero;"/>
            <path d="M368.511,353.228L362.586,353.323L362.586,354.272L368.511,354.272L368.511,353.228Z" style="fill:rgb(254,254,254);fill-rule:nonzero;"/>
            <path d="M364.279,356.17L358.259,356.265L358.259,357.12L364.279,357.12L364.279,356.17Z" style="fill:rgb(254,254,254);fill-rule:nonzero;"/>
            <path d="M351.393,351.804L345.468,351.899L345.468,352.753" style="fill:rgb(254,254,254);fill-rule:nonzero;"/>
            <path d="M359.952,352.278L354.027,352.373L354.027,353.228L359.952,353.228L359.952,352.278Z" style="fill:rgb(254,254,254);fill-rule:nonzero;"/>
            <path d="M360.893,347.532L355.908,347.627L355.908,348.481L360.893,348.481L360.893,347.532Z" style="fill:rgb(254,254,254);fill-rule:nonzero;"/>
            <path d="M355.343,355.316L349.324,355.411L349.324,356.265L355.343,356.265L355.343,355.316Z" style="fill:rgb(254,254,254);fill-rule:nonzero;"/>
            <path d="M368.511,349.62L362.492,349.715L362.492,350.57L368.511,350.57L368.511,349.62Z" style="fill:rgb(254,254,254);fill-rule:nonzero;"/>
            <path d="M355.343,349.62L349.324,349.715L349.324,350.57L355.343,350.57L355.343,349.62Z" style="fill:rgb(254,254,254);fill-rule:nonzero;"/>
            <path d="M350.641,346.772L344.621,346.867L344.621,347.722L350.641,347.722L350.641,346.772Z" style="fill:rgb(254,254,254);fill-rule:nonzero;"/>
            <path d="M376.601,354.367C377.917,353.323 384.878,350.095 385.724,349.43C386.571,348.766 395.882,346.013 397.669,345.823C399.456,345.633 408.109,346.488 413.188,347.152C416.176,347.56 419.216,347.201 422.03,346.108C422.03,346.108 430.119,346.772 435.95,346.772C435.95,347.342 437.549,348.956 437.549,349.525C437.643,353.038 437.361,352.943 437.549,356.455C430.118,355.895 423.817,354.946 423.817,354.946C420.243,357.794 410.273,357.794 406.793,357.319C403.761,357.025 400.713,356.93 397.669,357.034C395.97,358.28 394.178,359.391 392.308,360.357C389.486,361.781 387.699,361.116 388.169,359.977C388.64,358.838 393.719,355.041 394.283,354.281C394.847,353.522 390.427,355.041 390.145,355.136C389.863,355.231 381.774,360.452 381.774,360.452C377.823,360.357 378.011,359.312 378.011,359.312C374.531,359.882 373.873,358.553 373.685,357.889C373.497,357.224 375.19,355.411 376.601,354.367Z" style="fill:url(#_Linear11);fill-rule:nonzero;"/>
            <path d="M401.986,510.808C401.986,512.517 425.594,513.941 454.751,513.941C483.909,513.941 507.526,512.526 507.526,510.808C507.526,509.09 483.909,507.676 454.751,507.676C383.645,507.676 401.986,509.1 401.986,510.808Z" style="fill:url(#_Linear12);fill-rule:nonzero;"/>
            <path d="M486.27,470.654C487.399,470.369 488.433,470.084 489.468,469.894C491.913,469.515 494.171,469.894 495.864,471.793C496.935,473.093 497.62,474.673 497.839,476.349C498.873,481.95 497.18,486.602 493.324,490.684C490.596,493.428 487.567,495.848 484.295,497.898C483.399,498.45 482.757,499.337 482.508,500.366C481.56,504.093 480.334,507.743 478.839,511.283C478.772,511.461 478.657,511.617 478.508,511.735C478.359,511.852 478.181,511.925 477.993,511.947C471.476,513.761 464.603,513.827 458.053,512.137C456.454,511.663 456.454,511.663 455.89,510.144C453.246,502.991 451.354,495.577 450.246,488.026C449.201,481.18 448.761,474.255 448.93,467.331C448.93,466.002 449.024,466.002 450.246,465.528C452.266,464.912 454.349,464.53 456.454,464.388C461.961,463.961 467.489,463.866 473.008,464.104C476.549,464.112 480.08,464.493 483.542,465.243C484.309,465.452 485.062,465.705 485.8,466.002C486.176,466.097 486.27,466.382 486.27,466.762L486.27,470.654ZM484.107,494.101C484.295,494.101 484.295,494.006 484.389,494.006C490.032,490.873 493.794,486.412 494.171,479.577C494.314,478.097 494.121,476.604 493.606,475.21C493.425,474.609 493.084,474.07 492.619,473.651C492.155,473.232 491.585,472.951 490.973,472.837C490.035,472.721 489.085,472.907 488.258,473.367C487.431,473.827 486.768,474.538 486.364,475.4L486.364,475.78C486.364,476.254 486.27,476.824 486.27,477.299C486.072,481.469 485.632,485.625 484.953,489.744C484.671,491.158 484.389,492.592 484.107,494.101Z" style="fill:url(#_Linear13);fill-rule:nonzero;"/>
            <path d="M473.572,438.188C474.243,442.248 473.296,446.411 470.938,449.769C469.998,451.193 469.151,452.522 468.211,453.946C466.764,456.29 465.804,458.906 465.389,461.635C465.295,462.11 465.201,462.49 465.107,462.964L465.013,462.964C464.919,462.3 464.919,461.635 464.825,460.876C464.723,457.604 465.644,454.382 467.458,451.668C468.211,450.434 468.963,449.295 469.81,448.156C471.605,445.441 472.793,442.363 473.29,439.138" style="fill:url(#_Linear14);fill-rule:nonzero;"/>
            <path d="M479.592,436.1C480.262,440.16 479.316,444.323 476.958,447.681C476.018,449.105 475.171,450.434 474.231,451.858C472.784,454.202 471.824,456.818 471.409,459.547C471.315,460.022 471.221,460.401 471.127,460.876L471.033,460.876C470.939,460.212 470.939,459.547 470.845,458.788C470.742,455.515 471.664,452.294 473.478,449.58C474.231,448.346 474.983,447.206 475.829,446.067C477.629,443.354 478.817,440.276 479.31,437.049" style="fill:url(#_Linear15);fill-rule:nonzero;"/>
            <path d="M461.815,458.788C461.815,458.408 461.721,458.028 461.721,457.743C461.566,455.037 462.329,452.359 463.885,450.149C464.637,448.915 465.484,447.776 466.142,446.542C466.99,444.942 467.563,443.209 467.835,441.416C467.835,441.226 467.929,441.131 467.929,440.941L468.023,440.941C468.023,441.416 468.117,441.89 468.117,442.46C468.156,444.931 467.433,447.352 466.048,449.39C465.295,450.529 464.543,451.668 463.885,452.807C462.924,454.44 462.286,456.245 462.004,458.123C461.965,458.351 461.902,458.574 461.815,458.788Z" style="fill:url(#_Linear16);fill-rule:nonzero;"/>
            <path d="M604.78,461.446L610.329,492.392L643.719,492.392L648.516,461.446L604.78,461.446Z" style="fill:url(#_Linear17);fill-rule:nonzero;"/>
            <path d="M603.933,455.18C603.933,455.18 599.042,449.2 600.924,434.771C603.163,436.886 604.954,439.437 606.191,442.27C606.191,442.27 604.404,426.512 606.849,423.095C606.849,423.095 607.884,426.987 616.631,439.422C616.631,439.422 618.888,418.158 621.898,415.026C624.908,411.893 632.15,437.809 632.15,437.809C632.15,437.809 637.699,421.386 638.358,418.823C639.016,416.26 644.848,425.848 643.719,442.745C643.719,442.745 649.268,434.106 648.046,428.601C648.046,428.601 657.639,437.809 649.927,455.275L649.55,456.13L603.933,455.18Z" style="fill:url(#_Linear18);fill-rule:nonzero;"/>
            <path d="M620.863,455.57C620.863,455.57 637.041,428.61 637.887,417.598C637.887,417.598 646.541,417.883 643.907,455.949L620.863,455.57Z" style="fill:rgb(140,244,194);fill-rule:nonzero;"/>
            <path d="M610.141,455.37C610.141,455.37 601.112,439.517 606.379,423C606.379,423 609.577,433.347 616.067,438.663C622.745,444.169 625.378,448.535 625.378,448.535C625.378,448.535 625.096,453.377 621.24,455.56L610.141,455.37Z" style="fill:rgb(64,237,153);fill-rule:nonzero;"/>
            <rect x="600.266" y="454.991" width="52.389" height="6.739" style="fill:url(#_Linear19);fill-rule:nonzero;"/>
            <path d="M24.793,310.187C29.919,310.187 38.29,310.662 38.29,310.662C38.29,310.662 41.112,321.465 43.416,331.328C45.72,341.191 41.535,363.347 76.994,366.631C77.565,367.238 78.085,367.892 78.546,368.587L78.546,371.482L75.057,371.482L32.731,452.266L32.731,457.753L31.001,457.753L31.001,460.098L36.428,460.098L36.428,457.592L34.725,457.592L34.876,452.893L86.926,400.217L94.056,462.29L94.216,470.274L92.118,470.274L92.118,472.391L98.326,472.391L98.326,470.435L96.624,470.435L96.624,462.604L104.759,443.229L104.759,450.273L102.671,450.273L102.671,452.228L108.879,452.228L108.879,450.273L107.167,450.273L106.622,441.112L117.1,397.198L176.9,455.361L177.841,459.594L175.819,459.594L175.819,462.442L181.246,462.442L181.246,459.462L178.612,459.462L178.227,453.984L128.273,365.056C141.385,364.429 157.751,363.157 164.88,360.907C176.515,357.11 174.192,347.75 173.26,344.466L165.811,315.266C165.811,315.266 167.692,304.463 153.245,304.463C138.798,304.463 115.472,303.514 115.472,303.514C115.472,303.514 103.847,303.988 88.403,292.246C72.959,280.503 60.948,276.269 48.307,276.744C35.666,277.219 30.662,290.395 28.781,296.964C26.9,303.533 25.959,306.827 23.138,307.292C20.147,307.842 19.676,310.187 24.793,310.187ZM118.567,397.474L133.23,379.314L173.486,449.608L118.567,397.474ZM113.375,396.695L101.975,375.631L101.975,369.992L103.292,368.663L103.292,367.021C105.45,366.207 107.733,365.783 110.036,365.768C112.444,365.768 118.416,365.692 125.63,365.378L132.064,378.061L116.94,396.771L113.375,396.771L113.375,396.695ZM107.732,396.296L102.69,396.695L102.145,384.953L107.732,396.296ZM102.53,381.896L102.765,378.763L111.663,396.714L109.961,396.714L102.53,381.896ZM103.697,400.881L114.56,400.881C114.014,401.423 105.089,437.752 105.089,437.752L103.697,400.881ZM103.697,439.318L98.11,420.759L98.73,400.483L101.834,400.881L103.697,439.318ZM99.426,396.961L100.367,380.918L101.308,396.961L99.426,396.961ZM96.953,457.24L98.11,425.772L103.311,441.425L96.953,457.24ZM94.216,396.714C94.216,396.714 97.705,384.573 97.705,384.032L97.705,396.714L94.216,396.714ZM88.977,400.606L96.116,400.606C96.116,400.606 94.639,448.668 94.874,455.399L94.949,456.187C94.874,456.187 94.874,455.873 94.874,455.399L88.977,400.606ZM73.081,380.481L85.647,398.413L38.187,447.102L73.081,380.481ZM82.929,372.697L82.929,368.862C84.051,367.642 85.449,366.713 87.003,366.155C88.557,365.596 90.221,365.424 91.855,365.654L96.972,366.119C97.315,366.357 97.676,366.566 98.053,366.745L98.053,379.039L92.476,396.42L88.046,396.42L74.248,378.725L76.185,372.697L82.929,372.697ZM32.242,307.368C32.242,307.368 42.946,307.766 56.518,308.782C68.849,309.731 70.485,318.171 70.485,318.171C70.485,318.171 75.132,331.793 82.12,346.905C89.109,362.018 139.899,355.829 139.899,355.829C139.899,355.829 111.898,362.474 95.608,359.113C78.311,355.591 76.994,345.453 76.994,345.453C76.994,345.453 69.47,324.635 68.153,321.028C66.836,317.421 64.588,312.105 60.008,310.852C55.051,309.561 32.242,307.368 32.242,307.368Z" style="fill:rgb(237,241,251);fill-rule:nonzero;"/>
            <path d="M441.687,238.554L444.414,223.556L469.433,218.43L467.552,240.168L462.849,246.149L444.414,256.116L441.593,253.648L435.291,247.288L441.687,238.554Z" style="fill:url(#_Linear20);fill-rule:nonzero;"/>
            <path d="M499.532,243.111C513.17,250.99 511.477,261.622 510.818,267.128C507.809,293.613 500.848,319.433 494.735,345.349C492.666,354.177 487.21,358.354 478.275,359.113C466.236,360.157 454.291,361.391 442.157,362.91L443.098,348.101L462.85,336.52C462.85,336.52 468.211,336.615 467.929,335.571C467.647,334.527 469.34,331.584 469.34,331.584C469.34,331.584 471.503,328.356 471.503,327.217C471.503,326.078 471.785,323.23 472.443,322.376C473.452,320.189 474.088,317.846 474.325,315.446C474.325,313.927 475.265,310.795 476.394,309.751C477.523,308.706 480.72,296.081 480.72,296.081C480.72,296.081 478.087,297.979 474.325,307.282" style="fill:rgb(36,58,127);fill-rule:nonzero;"/>
            <path d="M480.814,194.698C481.567,192.609 481.943,191.375 481.943,191.375C481.943,191.375 482.977,181.692 482.883,176.092C482.789,170.491 459.557,176.661 456.077,174.953C452.597,173.244 438.113,179.699 438.113,179.699C437.737,179.889 437.172,181.218 436.984,181.692C436.589,182.395 436.243,183.124 435.95,183.876C434.633,187.008 434.633,191.945 434.821,195.362C435.009,197.83 434.633,198.59 434.727,201.058C434.821,202.861 435.103,204.76 435.291,206.564C435.573,209.506 435.949,214.443 437.266,217.101C438.583,219.759 438.113,220.518 438.865,223.366C439.43,225.264 441.969,231.909 445.355,230.77C448.741,229.631 457.3,232.099 458.241,230.675C459.181,229.251 469.716,222.606 470.938,220.043C472.537,216.626 474.324,212.449 475.923,208.272L475.923,208.652C475.923,208.652 476.958,209.032 477.24,208.652C477.522,208.272 483.26,200.393 481.755,196.311C481.536,195.723 481.218,195.177 480.814,194.698Z" style="fill:url(#_Linear21);fill-rule:nonzero;"/>
            <path d="M469.81,156.631C474.607,157.581 479.403,159.669 482.319,163.751C484.765,167.168 485.423,172.105 482.978,175.522C483.586,175.79 484.133,176.181 484.586,176.671C485.039,177.161 485.388,177.739 485.611,178.37C486.032,179.655 486.223,181.005 486.175,182.357C486.081,187.578 483.26,194.413 481.943,199.444C481.567,197.64 481.567,194.508 479.78,194.128C478.87,193.955 477.931,194.041 477.067,194.376C476.203,194.712 475.449,195.283 474.889,196.027C474.324,196.786 473.854,197.83 472.914,198.115C472.242,198.211 471.557,198.112 470.938,197.83C468.811,197.385 466.604,197.516 464.542,198.21C464.24,197.843 464.095,197.371 464.137,196.896C464.179,196.421 464.406,195.982 464.768,195.675C464.927,195.544 465.104,195.439 465.295,195.362C466.236,194.982 469.81,195.457 469.998,194.128C469.973,193.836 469.838,193.564 469.622,193.369C468.59,192.498 467.452,191.764 466.236,191.185C465.915,191.014 465.653,190.749 465.483,190.426C465.389,190.149 465.389,189.848 465.483,189.571C465.859,187.008 466.236,183.591 468.493,181.977C469.904,180.933 471.691,180.648 473.196,179.984C475.799,178.758 478.468,177.681 481.19,176.756C476.958,178.085 472.819,179.319 468.587,180.648C466.518,181.313 464.354,181.977 462.285,182.642C461.395,182.985 460.484,183.27 459.558,183.496C458.617,183.686 457.676,183.211 456.736,183.211C454.761,183.116 453.162,184.161 451.281,184.825C450.716,185.015 449.305,185.774 448.083,185.395C447.612,185.3 448.835,184.161 449.023,183.781C449.295,183.084 449.301,182.31 449.041,181.609C448.78,180.907 448.271,180.329 447.612,179.984C446.939,179.688 446.208,179.551 445.474,179.584C444.741,179.617 444.024,179.818 443.38,180.174C442.91,180.363 442.533,180.743 442.063,180.648C441.593,180.553 441.217,179.889 441.593,179.604C439.728,180.669 438.321,182.394 437.642,184.445C437.59,184.777 437.423,185.079 437.172,185.3C436.043,186.154 435.197,182.642 435.103,182.072C434.84,180.43 434.904,178.752 435.291,177.136C435.949,174.098 437.454,171.25 438.489,168.308C438.1,168.461 437.683,168.526 437.266,168.497C437.172,166.979 439.147,164.7 439.994,163.466C446.578,155.207 458.617,154.923 468.211,156.442C468.748,156.462 469.283,156.526 469.81,156.631Z" style="fill:rgb(92,47,0);fill-rule:nonzero;"/>
            <path d="M475.077,210.835C475.537,209.749 475.822,208.595 475.923,207.418C476.112,205.519 475.547,202.672 478.181,193.084C478.557,191.565 473.76,198.115 472.161,197.545C471.879,197.451 471.503,197.83 471.221,197.925C470.374,198.02 470.092,199.539 469.904,200.298C469.154,203.548 468.211,206.75 467.082,209.886C466.597,211.449 465.867,212.923 464.919,214.253C464.302,214.991 463.609,215.659 462.85,216.246C461.815,217.196 460.592,218.145 459.181,217.765C459.066,218.218 458.778,218.606 458.379,218.845C457.981,219.083 457.505,219.152 457.056,219.037L456.924,219.037C456.423,218.808 455.95,218.521 455.513,218.183C455.325,217.993 454.949,217.803 454.855,217.613C454.761,217.423 454.949,217.139 454.949,216.854C454.949,216.569 454.479,216.379 454.196,216.094C453.914,215.81 454.102,215.43 453.914,215.05C453.538,213.911 451.939,213.721 451.093,213.626C449.87,213.531 448.929,213.531 447.613,213.531C446.484,213.531 444.885,213.341 443.756,213.247C442.816,213.247 439.053,213.341 438.301,214.006C437.737,214.481 437.36,216.664 437.36,217.328C437.172,219.322 436.702,220.746 436.608,222.929C436.608,224.068 436.984,226.821 436.984,227.96C437.078,230.049 439.147,231.093 440.84,232.232C444.031,234.365 447.846,235.336 451.657,234.985C454.336,234.965 456.998,234.55 459.558,233.751C461.87,232.909 463.961,231.546 465.671,229.764C467.176,228.15 469.528,227.011 470.468,224.923C470.656,224.543 467.27,226.631 467.458,226.252L465.201,228.245L465.201,227.391C465.162,226.96 465.261,226.527 465.483,226.157C465.6,225.986 465.777,225.866 465.979,225.824C466.18,225.781 466.39,225.819 466.565,225.929L467.694,224.41C467.788,224.695 467.882,225.075 467.976,225.359C467.882,225.075 468.446,224.125 468.54,223.841C468.833,223.27 469.179,222.73 469.575,222.227C469.669,222.132 469.857,221.942 469.951,222.037C470.233,222.132 470.139,222.512 470.233,222.701C470.279,222.841 470.367,222.962 470.486,223.047C470.604,223.132 470.746,223.177 470.891,223.176C471.181,223.151 471.45,223.015 471.644,222.796C472.179,222.237 472.567,221.552 472.773,220.803C473.712,218.106 474.466,215.346 475.03,212.544C475.347,211.692 475.38,210.759 475.124,209.886L475.077,210.835ZM458.194,232.859C458.569,232.053 459.115,231.34 459.793,230.77C460.164,230.449 460.623,230.251 461.11,230.201C461.234,230.195 461.357,230.218 461.471,230.267C461.585,230.317 461.686,230.391 461.768,230.486L458.194,232.859ZM463.085,229.631C463.555,229.062 464.025,228.397 464.496,227.828L464.966,228.302L463.085,229.631Z" style="fill:rgb(92,47,0);fill-rule:nonzero;"/>
            <path d="M464.166,194.887C464.448,194.982 465.389,195.077 465.389,195.362C465.463,196.284 465.4,197.212 465.201,198.115C465.107,198.78 465.107,198.874 465.013,199.444C464.731,200.963 464.825,203.241 464.072,204.665C463.844,205.168 463.518,205.621 463.114,205.996C462.71,206.37 462.237,206.66 461.721,206.848C459.099,207.75 456.254,207.75 453.632,206.848C451.469,206.089 450.246,204.285 449.305,202.292C448.977,201.462 448.568,200.667 448.083,199.919C447.33,198.874 446.578,199.064 446.013,200.203C445.582,201.194 445.205,202.208 444.885,203.241C444.126,204.872 442.757,206.133 441.078,206.747C439.4,207.361 437.549,207.278 435.931,206.516C435.47,206.295 435.035,206.025 434.633,205.709C434.179,205.326 433.824,204.837 433.598,204.285C432.752,201.532 431.999,198.78 431.153,195.932C433.595,195.059 436.217,194.831 438.771,195.267C441.028,195.647 443.286,196.311 445.543,196.786C446.443,196.976 447.371,196.976 448.271,196.786C450.904,196.311 453.538,195.457 456.171,195.077C458.147,194.603 462.191,194.887 464.166,194.887C464.448,196.596 462.285,196.786 460.78,196.311C457.931,195.636 454.961,195.668 452.127,196.406C450.528,196.786 450.058,197.545 449.964,199.254C449.87,203.716 453.068,206.659 457.77,206.469C458.791,206.385 459.799,206.194 460.78,205.899C462.473,205.424 463.038,204.76 463.132,202.956C463.179,202.515 463.179,202.069 463.132,201.627C462.603,199.33 462.974,196.916 464.166,194.887ZM439.241,206.184C441.499,206.184 442.627,205.519 443.474,203.431C443.922,202.261 444.269,201.054 444.509,199.824C444.587,199.568 444.614,199.298 444.589,199.032C444.563,198.765 444.486,198.506 444.361,198.269C444.236,198.033 444.066,197.823 443.86,197.654C443.655,197.484 443.418,197.357 443.164,197.28L443.098,197.28C440.52,196.292 437.733,195.998 435.009,196.425C434.561,196.457 434.144,196.667 433.85,197.008C433.555,197.35 433.407,197.796 433.438,198.248C433.445,198.37 433.468,198.492 433.504,198.609C433.598,199.653 433.692,200.697 433.88,201.741C434.445,204.76 436.138,206.184 439.241,206.184Z" style="fill-rule:nonzero;"/>
            <path d="M442.157,217.86C442.169,217.863 442.18,217.863 442.192,217.861C442.203,217.858 442.214,217.853 442.223,217.846C442.232,217.838 442.24,217.829 442.244,217.818C442.249,217.808 442.252,217.796 442.251,217.784C442.875,217.689 443.509,217.689 444.132,217.784C444.919,217.805 445.704,217.868 446.484,217.974C448.083,218.164 449.682,218.259 451.281,218.449C451.535,218.432 451.791,218.464 452.033,218.544C452.281,218.612 452.507,218.743 452.692,218.923C452.77,219.057 452.804,219.212 452.787,219.366C452.77,219.521 452.703,219.665 452.598,219.778C452.148,220.485 451.535,221.071 450.81,221.486C450.02,221.983 449.166,222.366 448.271,222.625C447.306,222.836 446.305,222.804 445.355,222.531C444.18,222.019 443.217,221.114 442.628,219.967C442.533,219.664 441.687,218.249 442.157,217.86Z" style="fill:white;fill-rule:nonzero;"/>
            <path d="M456.36,233.713L465.107,224.695L472.537,217.29L473.196,218.714C473.196,218.714 474.042,218.619 473.102,220.898C471.956,223.465 470.29,225.761 468.211,227.638L462.944,232.004L460.78,233.238C460.084,233.694 459.254,233.895 458.429,233.808L456.36,233.713Z" style="fill:rgb(92,47,0);fill-rule:nonzero;"/>
            <path d="M441.875,217.765C442.755,217.226 443.761,216.931 444.791,216.911C446.202,217.006 447.707,217.48 449.117,217.48C450.528,217.48 452.409,217.29 452.127,217.575L450.152,215.772L443.944,215.772L441.405,216.436L441.405,218.43L441.875,217.765Z" style="fill:rgb(92,47,0);fill-rule:nonzero;"/>
            <path d="M464.919,214.063C465.549,213.309 466.086,212.48 466.518,211.595C469.528,205.045 465.389,219.094 465.389,219.094L459.934,221.942L455.795,217.955C455.701,218.145 461.439,218.145 464.919,214.063Z" style="fill:rgb(92,47,0);fill-rule:nonzero;"/>
            <path d="M453.444,214.633C453.444,214.633 454.479,214.158 456.736,218.525C458.993,222.891 455.043,219.759 455.043,219.759L453.35,217.196L453.35,214.633L453.444,214.633Z" style="fill:rgb(92,47,0);fill-rule:nonzero;"/>
            <path d="M438.583,203.526C439.518,203.526 440.276,202.846 440.276,202.007C440.276,201.168 439.518,200.488 438.583,200.488C437.648,200.488 436.89,201.168 436.89,202.007C436.89,202.846 437.648,203.526 438.583,203.526Z" style="fill-rule:nonzero;"/>
            <path d="M456.83,203.526C457.765,203.526 458.523,202.846 458.523,202.007C458.523,201.168 457.765,200.488 456.83,200.488C455.895,200.488 455.137,201.168 455.137,202.007C455.137,202.846 455.895,203.526 456.83,203.526Z" style="fill-rule:nonzero;"/>
            <path d="M446.86,201.058C446.86,201.058 445.543,211.31 445.731,211.975C445.919,212.639 448.647,213.304 450.34,211.595" style="fill:url(#_Linear22);fill-rule:nonzero;"/>
            <path d="M450.34,182.452C448.069,183.688 445.672,184.674 443.192,185.395C439.618,186.344 458.241,175.142 454.949,173.624C451.657,172.105 454.855,179.319 445.261,182.167C435.668,185.015 440.935,180.933 440.935,180.933L435.668,182.737L448.083,174.573" style="fill:rgb(92,47,0);fill-rule:nonzero;"/>
            <path d="M468.681,227.353C468.681,227.353 469.528,233.049 460.028,240.168C447.989,249.186 442.252,252.604 440.653,253.648C440.653,253.648 449.024,263.9 449.4,264.47C449.776,265.039 459.182,257.16 462.944,253.363C466.638,249.425 470.063,245.239 473.196,240.833C473.102,240.833 471.221,230.296 468.681,227.353Z" style="fill:url(#_Linear23);fill-rule:nonzero;"/>
            <path d="M441.875,235.232C442.063,235.422 441.969,235.991 441.969,236.181C441.989,236.626 441.958,237.072 441.875,237.51C441.802,238.246 441.677,238.976 441.499,239.694C441.311,240.358 441.028,241.023 440.84,241.687C440.559,242.841 440.371,244.015 440.276,245.199L440.276,246.338C440.276,247.952 440.464,251.654 441.499,252.889C440.182,254.123 438.959,255.357 437.642,256.591C436.702,257.445 435.761,258.394 434.821,259.249C434.35,259.628 433.786,260.483 433.128,260.578C432.893,259.327 432.798,258.053 432.846,256.781C433.034,252.604 433.316,250.895 433.598,247.667C433.891,244.437 434.991,241.334 436.796,238.649C437.393,237.752 438.122,236.951 438.959,236.276C439.388,235.927 439.863,235.64 440.37,235.422C440.609,235.318 440.863,235.253 441.123,235.232C441.311,235.232 441.499,235.137 441.687,235.137C441.71,235.165 441.739,235.188 441.771,235.204C441.804,235.221 441.839,235.23 441.875,235.232Z" style="fill:url(#_Linear24);fill-rule:nonzero;"/>
            <path d="M482.131,291.344C482.131,291.344 476.77,328.366 474.418,329.125C472.067,329.885 450.998,339.662 450.998,339.662L450.998,337.669L472.819,327.606L482.131,291.344Z" style="fill:rgb(23,42,114);fill-rule:nonzero;"/>
            <path d="M408.673,323.8L417.985,287.537C417.985,287.537 404.817,322.471 406.51,324.369" style="fill:rgb(23,42,114);fill-rule:nonzero;"/>
            <path d="M445.449,358.638C446.107,349.336 445.167,344.494 445.167,344.494C442.91,344.684 441.028,343.355 433.692,345.349C433.692,345.349 433.034,361.961 435.573,361.676C438.113,361.391 445.543,360.347 445.449,359.588" style="fill:url(#_Linear25);fill-rule:nonzero;"/>
            <path d="M455.513,281.272L470.186,284.784L469.622,287.063L454.855,283.55L455.513,281.272Z" style="fill:rgb(23,42,114);fill-rule:nonzero;"/>
            <path d="M452.409,310.51L449.305,293.328L440.276,318.009L428.895,346.583L431.623,346.678L433.692,346.772L433.692,345.254L434.539,345.064C435.78,344.772 437.036,344.55 438.301,344.399" style="fill:rgb(36,58,127);fill-rule:nonzero;"/>
            <path d="M454.855,284.595L452.503,294.847C452.503,294.847 458.805,302.536 467.082,298.454L469.528,288.012L454.855,284.595Z" style="fill:rgb(23,42,114);fill-rule:nonzero;"/>
            <path d="M344.339,350.095C345.28,348.956 350.359,344.589 350.923,343.83C351.487,343.07 358.73,338.609 360.234,338.039C361.739,337.47 369.264,336.235 373.684,335.666C378.105,335.096 382.996,331.964 382.996,331.964C385.569,331.603 388.115,331.064 390.615,330.35C390.803,330.825 390.897,331.394 391.085,331.869C391.931,334.812 391.649,336.805 392.59,339.748C388.807,340.471 385.116,341.618 381.585,343.165C377.729,346.772 371.051,347.817 368.041,348.196C366.328,348.46 364.576,348.264 362.962,347.627C361.823,349.062 360.565,350.396 359.2,351.614C357.131,353.417 355.532,353.323 355.626,352.183C355.72,351.044 359.2,346.772 359.482,345.918C359.764,345.064 356.378,347.437 356.19,347.532C356.002,347.627 350.265,353.987 350.265,353.987C346.973,354.841 346.784,353.892 346.784,353.892C343.963,355.126 343.116,354.177 342.74,353.702C342.364,353.228 343.493,351.234 344.339,350.095Z" style="fill:url(#_Linear26);fill-rule:nonzero;"/>
            <path d="M394,334.242C391.845,330.909 389.457,327.737 386.852,324.749C385.629,325.888 384.501,327.217 381.021,331.774C381.021,331.774 389.11,344.399 390.52,343.07C391.931,341.741 397.01,337.564 396.634,337.185" style="fill:url(#_Linear27);fill-rule:nonzero;"/>
            <path d="M221.031,459.927L210.591,465.433C210.591,465.433 214.636,474.071 217.739,488.405C217.739,488.405 221.22,484.418 229.403,479.102L221.031,459.927Z" style="fill:url(#_Linear28);fill-rule:nonzero;"/>
            <path d="M269.47,474.166L269.847,485.842C269.847,485.842 277.935,483.944 292.42,483.754C292.42,483.754 292.138,482.045 291.385,474.166L269.47,474.166Z" style="fill:url(#_Linear29);fill-rule:nonzero;"/>
            <path d="M196.201,505.967C196.201,505.967 180.964,513.941 171.182,506.252C168.203,503.985 165.627,501.225 163.563,498.088C160.177,492.772 158.202,486.697 163.375,481.855C164.805,480.589 166.385,479.505 168.078,478.628C168.706,478.209 169.409,477.919 170.147,477.773C170.617,477.678 172.122,477.868 172.216,478.533C172.31,479.007 171.558,479.387 171.276,479.672C170.053,480.621 168.642,481.381 167.984,482.71C166.667,485.178 161.87,483.849 170.523,497.518C170.523,497.518 176.073,505.208 179.647,505.397C183.221,505.587 193.379,506.062 196.107,504.448C198.834,502.834 196.201,505.967 196.201,505.967Z" style="fill:rgb(8,82,195);fill-rule:nonzero;"/>
            <path d="M163.281,485.273C162.888,485.985 162.602,486.753 162.435,487.551C162.058,489.734 162.999,491.918 164.222,493.721C166.324,496.881 168.857,499.725 171.746,502.17C173.815,503.879 176.543,506.252 179.271,506.631C184.444,507.201 197.706,507.011 207.111,500.461C216.517,493.911 227.521,484.228 227.992,482.425C228.462,480.621 225.64,481.76 223.947,483.374C222.254,484.988 218.304,487.551 217.739,485.652C217.175,483.754 219.15,469.989 210.497,465.622C210.497,465.622 216.423,463.154 216.893,461.825C217.363,460.496 210.215,462.015 197.047,467.331C194.884,468.186 192.438,468.66 190.181,469.42C185.95,470.73 181.829,472.381 177.86,474.356C173.516,476.556 169.443,479.264 165.726,482.425C164.747,483.216 163.918,484.181 163.281,485.273Z" style="fill:rgb(3,29,40);fill-rule:nonzero;"/>
            <path d="M189.053,479.862C188.771,477.488 195.449,490.304 196.013,490.494" style="fill:none;fill-rule:nonzero;stroke:white;stroke-width:2px;stroke-linecap:butt;stroke-linejoin:miter;stroke-miterlimit:10;"/>
            <path d="M191.78,479.482C191.404,477.583 198.552,488.31 197.517,487.931" style="fill:none;fill-rule:nonzero;stroke:white;stroke-width:2px;stroke-linecap:butt;stroke-linejoin:miter;stroke-miterlimit:10;"/>
            <path d="M297.405,486.127C292.232,476.729 275.678,474.546 268.906,483.089C263.921,489.449 263.075,498.562 263.263,506.347C263.357,509.859 263.075,511.378 265.991,512.232C268.332,512.801 270.731,513.088 273.139,513.087C275.114,513.181 294.207,515.27 299.945,512.327C299.286,511.757 299.851,505.872 299.851,504.923C299.757,500.176 299.474,495.43 298.91,490.683C298.714,489.079 298.202,487.53 297.405,486.127Z" style="fill:rgb(3,29,40);fill-rule:nonzero;"/>
            <path d="M299.945,512.422C299.192,510.713 296.558,507.866 295.242,506.442C293.546,504.713 291.687,503.155 289.692,501.79C285.836,499.037 280.475,499.322 276.148,501.315C272.903,502.977 269.922,505.121 267.307,507.676C265.144,509.669 262.51,511.758 266.743,512.517C271.918,513.228 277.133,513.609 282.356,513.656C286.965,513.656 295.712,514.89 299.945,512.422Z" style="fill:rgb(8,82,195);fill-rule:nonzero;"/>
            <path d="M276.148,493.246C274.079,492.202 288.282,493.721 288.846,493.341" style="fill:none;fill-rule:nonzero;stroke:white;stroke-width:2px;stroke-linecap:butt;stroke-linejoin:miter;stroke-miterlimit:10;"/>
            <path d="M277.371,490.778C275.678,490.019 288.376,490.019 287.435,490.683" style="fill:none;fill-rule:nonzero;stroke:white;stroke-width:2px;stroke-linecap:butt;stroke-linejoin:miter;stroke-miterlimit:10;"/>
            <rect x="369.734" y="348.766" width="2.634" height="1.804" style="fill:rgb(218,218,218);fill-rule:nonzero;"/>
            <path d="M376.036,353.987L370.016,354.082L370.016,354.936L376.036,354.936L376.036,353.987Z" style="fill:rgb(254,254,254);fill-rule:nonzero;"/>
            <path d="M376.036,351.139L370.016,351.234L370.016,352.089L376.036,352.089L376.036,351.139Z" style="fill:rgb(254,254,254);fill-rule:nonzero;"/>
            <path d="M355.343,358.733L349.324,358.828L349.324,359.683L355.343,359.683L355.343,358.733Z" style="fill:rgb(254,254,254);fill-rule:nonzero;"/>
            <path d="M371.333,358.733L365.313,358.828L365.313,359.683L371.333,359.683L371.333,358.733Z" style="fill:rgb(254,254,254);fill-rule:nonzero;"/>
            <rect x="332.77" y="363.575" width="98.1" height="1.803" style="fill:rgb(254,254,254);fill-rule:nonzero;"/>
            <rect x="332.112" y="260.957" width="1.316" height="104.421" style="fill:rgb(254,254,254);fill-rule:nonzero;"/>
            <path d="M321.765,316.585C322.649,316.585 323.364,313.313 323.364,309.276C323.364,305.239 322.649,301.966 321.765,301.966C320.882,301.966 320.166,305.239 320.166,309.276C320.166,313.313 320.882,316.585 321.765,316.585Z" style="fill:rgb(254,254,254);fill-rule:nonzero;"/>
            <path d="M471.465,159.394C475.547,160.201 479.639,161.976 482.122,165.46C484.2,168.364 484.765,172.57 482.677,175.484C483.196,175.712 483.664,176.046 484.051,176.464C484.437,176.882 484.735,177.375 484.925,177.914C485.29,179.004 485.452,180.153 485.404,181.303C485.329,185.755 482.921,191.574 481.802,195.865C481.482,194.327 481.482,191.66 479.921,191.337C479.146,191.189 478.346,191.261 477.61,191.546C476.874,191.831 476.232,192.318 475.754,192.951C475.275,193.596 474.87,194.489 474.071,194.736C473.498,194.812 472.915,194.726 472.387,194.489C470.575,194.11 468.697,194.222 466.941,194.811C466.806,194.659 466.702,194.481 466.636,194.288C466.569,194.094 466.542,193.889 466.555,193.685C466.568,193.481 466.622,193.281 466.712,193.098C466.803,192.915 466.929,192.752 467.082,192.619C467.224,192.503 467.383,192.411 467.553,192.343C468.352,192.021 471.399,192.429 471.559,191.299C471.536,191.051 471.422,190.821 471.24,190.654C470.36,189.901 469.39,189.263 468.352,188.755C468.084,188.603 467.863,188.38 467.712,188.11C467.628,187.873 467.628,187.615 467.712,187.379C468.032,185.195 468.352,182.281 470.28,180.905C471.475,180.022 472.998,179.775 474.278,179.205C476.498,178.163 478.775,177.247 481.097,176.462C477.485,177.592 473.958,178.645 470.355,179.775C468.597,180.344 466.753,180.905 464.985,181.474C464.25,181.788 463.496,182.054 462.728,182.271C461.922,182.27 461.118,182.187 460.329,182.025C458.645,181.949 457.282,182.832 455.683,183.401C454.847,183.848 453.892,184.018 452.955,183.885C452.551,183.809 453.595,182.832 453.755,182.509C453.986,181.914 453.991,181.255 453.769,180.657C453.546,180.059 453.112,179.566 452.551,179.272C451.977,179.02 451.354,178.904 450.73,178.934C450.105,178.964 449.496,179.138 448.948,179.443C448.544,179.604 448.224,179.927 447.829,179.841C447.434,179.756 447.105,179.196 447.425,178.949C445.84,179.864 444.642,181.333 444.057,183.078C444.011,183.36 443.872,183.617 443.662,183.809C442.722,184.531 441.979,181.541 441.894,181.056C441.67,179.658 441.724,178.228 442.054,176.851C442.618,174.26 443.935,171.839 444.782,169.333C444.448,169.458 444.093,169.513 443.738,169.494C443.662,168.194 445.346,166.257 446.061,165.203C451.704,158.169 461.928,157.932 470.102,159.223C470.56,159.245 471.016,159.302 471.465,159.394Z" style="fill:rgb(69,35,0);fill-rule:nonzero;"/>
        </g>
    </g>
    <defs>
        <linearGradient id="_Linear1" x1="0" y1="0" x2="1" y2="0" gradientUnits="userSpaceOnUse" gradientTransform="matrix(-386.617,4.73469e-14,-4.73469e-14,-386.617,670.836,455.935)"><stop offset="0" style="stop-color:rgb(3,3,3);stop-opacity:0.05"/><stop offset="1" style="stop-color:white;stop-opacity:0"/></linearGradient>
        <linearGradient id="_Linear2" x1="0" y1="0" x2="1" y2="0" gradientUnits="userSpaceOnUse" gradientTransform="matrix(84680,0,0,84680,304522,-1525.3)"><stop offset="0" style="stop-color:rgb(3,3,3);stop-opacity:0.05"/><stop offset="1" style="stop-color:white;stop-opacity:0"/></linearGradient>
        <linearGradient id="_Linear3" x1="0" y1="0" x2="1" y2="0" gradientUnits="userSpaceOnUse" gradientTransform="matrix(-20021,2.45187e-12,-2.45187e-12,-20021,-196140,-2614.41)"><stop offset="0" style="stop-color:rgb(3,3,3);stop-opacity:0.06"/><stop offset="1" style="stop-color:white;stop-opacity:0"/></linearGradient>
        <linearGradient id="_Linear4" x1="0" y1="0" x2="1" y2="0" gradientUnits="userSpaceOnUse" gradientTransform="matrix(355.645,0,0,355.645,249.427,366.356)"><stop offset="0" style="stop-color:rgb(49,93,232);stop-opacity:1"/><stop offset="0.03" style="stop-color:rgb(43,99,234);stop-opacity:1"/><stop offset="0.19" style="stop-color:rgb(19,121,244);stop-opacity:1"/><stop offset="0.33" style="stop-color:rgb(5,135,250);stop-opacity:1"/><stop offset="0.46" style="stop-color:rgb(0,140,252);stop-opacity:1"/><stop offset="1" style="stop-color:rgb(0,140,252);stop-opacity:1"/></linearGradient>
        <linearGradient id="_Linear5" x1="0" y1="0" x2="1" y2="0" gradientUnits="userSpaceOnUse" gradientTransform="matrix(294.236,0,0,294.236,306.246,421.633)"><stop offset="0" style="stop-color:rgb(62,140,252);stop-opacity:1"/><stop offset="0.14" style="stop-color:rgb(41,112,247);stop-opacity:1"/><stop offset="0.37" style="stop-color:rgb(11,71,241);stop-opacity:1"/><stop offset="0.49" style="stop-color:rgb(0,56,238);stop-opacity:1"/><stop offset="0.6" style="stop-color:rgb(3,60,239);stop-opacity:1"/><stop offset="0.71" style="stop-color:rgb(12,73,241);stop-opacity:1"/><stop offset="0.83" style="stop-color:rgb(27,93,244);stop-opacity:1"/><stop offset="0.94" style="stop-color:rgb(49,122,249);stop-opacity:1"/><stop offset="1" style="stop-color:rgb(62,140,252);stop-opacity:1"/></linearGradient>
        <linearGradient id="_Linear6" x1="0" y1="0" x2="1" y2="0" gradientUnits="userSpaceOnUse" gradientTransform="matrix(-49.915,6.11282e-15,-6.11282e-15,-49.915,545.76,315.683)"><stop offset="0" style="stop-color:rgb(8,42,193);stop-opacity:1"/><stop offset="0.34" style="stop-color:rgb(8,63,194);stop-opacity:1"/><stop offset="0.7" style="stop-color:rgb(8,77,195);stop-opacity:1"/><stop offset="1" style="stop-color:rgb(8,82,195);stop-opacity:1"/></linearGradient>
        <linearGradient id="_Linear7" x1="0" y1="0" x2="1" y2="0" gradientUnits="userSpaceOnUse" gradientTransform="matrix(-39470,-23923,23923,-39470,1.27343e+06,-181257)"><stop offset="0" style="stop-color:rgb(62,140,252);stop-opacity:1"/><stop offset="0.14" style="stop-color:rgb(41,112,247);stop-opacity:1"/><stop offset="0.37" style="stop-color:rgb(11,71,241);stop-opacity:1"/><stop offset="0.49" style="stop-color:rgb(0,56,238);stop-opacity:1"/><stop offset="0.6" style="stop-color:rgb(3,60,239);stop-opacity:1"/><stop offset="0.71" style="stop-color:rgb(12,73,241);stop-opacity:1"/><stop offset="0.83" style="stop-color:rgb(27,93,244);stop-opacity:1"/><stop offset="0.94" style="stop-color:rgb(49,122,249);stop-opacity:1"/><stop offset="1" style="stop-color:rgb(62,140,252);stop-opacity:1"/></linearGradient>
        <linearGradient id="_Linear8" x1="0" y1="0" x2="1" y2="0" gradientUnits="userSpaceOnUse" gradientTransform="matrix(239.608,0,0,239.608,218.774,423.047)"><stop offset="0" style="stop-color:rgb(25,70,175);stop-opacity:1"/><stop offset="1" style="stop-color:rgb(25,52,175);stop-opacity:1"/></linearGradient>
        <linearGradient id="_Linear9" x1="0" y1="0" x2="1" y2="0" gradientUnits="userSpaceOnUse" gradientTransform="matrix(-45407,5.56075e-12,-5.56075e-12,-45407,-118492,1465.26)"><stop offset="0" style="stop-color:rgb(3,3,3);stop-opacity:0.06"/><stop offset="1" style="stop-color:white;stop-opacity:0"/></linearGradient>
        <linearGradient id="_Linear10" x1="0" y1="0" x2="1" y2="0" gradientUnits="userSpaceOnUse" gradientTransform="matrix(109.904,0,0,109.904,244.969,402.799)"><stop offset="0" style="stop-color:rgb(25,70,175);stop-opacity:1"/><stop offset="1" style="stop-color:rgb(13,45,147);stop-opacity:1"/></linearGradient>
        <linearGradient id="_Linear11" x1="0" y1="0" x2="1" y2="0" gradientUnits="userSpaceOnUse" gradientTransform="matrix(-118.999,1.45732e-14,-1.45732e-14,-118.999,492.59,353.474)"><stop offset="0" style="stop-color:rgb(235,193,161);stop-opacity:1"/><stop offset="0.9" style="stop-color:rgb(255,173,132);stop-opacity:1"/><stop offset="1" style="stop-color:rgb(255,173,132);stop-opacity:1"/></linearGradient>
        <linearGradient id="_Linear12" x1="0" y1="0" x2="1" y2="0" gradientUnits="userSpaceOnUse" gradientTransform="matrix(-12324,1.50925e-12,-1.50925e-12,-12324,-173442,-1657.62)"><stop offset="0" style="stop-color:rgb(3,3,3);stop-opacity:0.04"/><stop offset="1" style="stop-color:white;stop-opacity:0"/></linearGradient>
        <linearGradient id="_Linear13" x1="0" y1="0" x2="1" y2="0" gradientUnits="userSpaceOnUse" gradientTransform="matrix(49.248,0,0,49.248,448.892,488.662)"><stop offset="0" style="stop-color:rgb(254,105,7);stop-opacity:1"/><stop offset="0.21" style="stop-color:rgb(249,107,20);stop-opacity:1"/><stop offset="0.51" style="stop-color:rgb(243,110,35);stop-opacity:1"/><stop offset="0.75" style="stop-color:rgb(245,128,32);stop-opacity:1"/><stop offset="1" style="stop-color:rgb(248,151,29);stop-opacity:1"/></linearGradient>
        <linearGradient id="_Linear14" x1="0" y1="0" x2="1" y2="0" gradientUnits="userSpaceOnUse" gradientTransform="matrix(8.879,0,0,8.879,464.909,450.576)"><stop offset="0" style="stop-color:rgb(8,42,193);stop-opacity:0.1"/><stop offset="0.38" style="stop-color:white;stop-opacity:0.22"/><stop offset="0.99" style="stop-color:white;stop-opacity:0.3"/><stop offset="1" style="stop-color:white;stop-opacity:0.3"/></linearGradient>
        <linearGradient id="_Linear15" x1="0" y1="0" x2="1" y2="0" gradientUnits="userSpaceOnUse" gradientTransform="matrix(84.63,0,0,84.63,9490.56,9692.02)"><stop offset="0" style="stop-color:rgb(8,42,193);stop-opacity:0.1"/><stop offset="0.38" style="stop-color:white;stop-opacity:0.22"/><stop offset="0.99" style="stop-color:white;stop-opacity:0.3"/><stop offset="1" style="stop-color:white;stop-opacity:0.3"/></linearGradient>
        <linearGradient id="_Linear16" x1="0" y1="0" x2="1" y2="0" gradientUnits="userSpaceOnUse" gradientTransform="matrix(44.08,0,0,44.08,6854.54,7082.17)"><stop offset="0" style="stop-color:rgb(8,42,193);stop-opacity:0.1"/><stop offset="0.38" style="stop-color:white;stop-opacity:0.22"/><stop offset="0.99" style="stop-color:white;stop-opacity:0.3"/><stop offset="1" style="stop-color:white;stop-opacity:0.3"/></linearGradient>
        <linearGradient id="_Linear17" x1="0" y1="0" x2="1" y2="0" gradientUnits="userSpaceOnUse" gradientTransform="matrix(43.736,0,0,43.736,604.78,476.919)"><stop offset="0" style="stop-color:rgb(8,42,193);stop-opacity:1"/><stop offset="0.12" style="stop-color:rgb(6,37,171);stop-opacity:1"/><stop offset="0.36" style="stop-color:rgb(2,27,130);stop-opacity:1"/><stop offset="0.49" style="stop-color:rgb(0,23,115);stop-opacity:1"/><stop offset="0.5" style="stop-color:rgb(0,24,119);stop-opacity:1"/><stop offset="0.64" style="stop-color:rgb(4,34,152);stop-opacity:1"/><stop offset="0.77" style="stop-color:rgb(6,41,176);stop-opacity:1"/><stop offset="0.9" style="stop-color:rgb(8,46,190);stop-opacity:1"/><stop offset="1" style="stop-color:rgb(8,47,195);stop-opacity:1"/></linearGradient>
        <linearGradient id="_Linear18" x1="0" y1="0" x2="1" y2="0" gradientUnits="userSpaceOnUse" gradientTransform="matrix(52.427,0,0,52.427,600.5,435.445)"><stop offset="0" style="stop-color:rgb(64,237,153);stop-opacity:1"/><stop offset="0.27" style="stop-color:rgb(48,178,115);stop-opacity:1"/><stop offset="0.52" style="stop-color:rgb(102,241,173);stop-opacity:1"/><stop offset="0.67" style="stop-color:rgb(48,178,115);stop-opacity:1"/><stop offset="1" style="stop-color:rgb(64,237,153);stop-opacity:1"/></linearGradient>
        <linearGradient id="_Linear19" x1="0" y1="0" x2="1" y2="0" gradientUnits="userSpaceOnUse" gradientTransform="matrix(52.389,0,0,52.389,600.266,458.36)"><stop offset="0" style="stop-color:rgb(8,42,193);stop-opacity:1"/><stop offset="0.13" style="stop-color:rgb(6,41,169);stop-opacity:1"/><stop offset="0.37" style="stop-color:rgb(2,40,128);stop-opacity:1"/><stop offset="0.49" style="stop-color:rgb(0,40,113);stop-opacity:1"/><stop offset="0.51" style="stop-color:rgb(1,43,119);stop-opacity:1"/><stop offset="0.65" style="stop-color:rgb(4,60,152);stop-opacity:1"/><stop offset="0.78" style="stop-color:rgb(6,72,176);stop-opacity:1"/><stop offset="0.9" style="stop-color:rgb(8,79,190);stop-opacity:1"/><stop offset="1" style="stop-color:rgb(8,82,195);stop-opacity:1"/></linearGradient>
        <linearGradient id="_Linear20" x1="0" y1="0" x2="1" y2="0" gradientUnits="userSpaceOnUse" gradientTransform="matrix(38.657,-9.082,9.082,38.657,431.388,244.802)"><stop offset="0" style="stop-color:rgb(235,193,161);stop-opacity:1"/><stop offset="0.07" style="stop-color:rgb(241,187,152);stop-opacity:1"/><stop offset="0.22" style="stop-color:rgb(249,179,141);stop-opacity:1"/><stop offset="0.42" style="stop-color:rgb(254,174,134);stop-opacity:1"/><stop offset="1" style="stop-color:rgb(255,173,132);stop-opacity:1"/></linearGradient>
        <linearGradient id="_Linear21" x1="0" y1="0" x2="1" y2="0" gradientUnits="userSpaceOnUse" gradientTransform="matrix(2467.7,0,0,2467.7,46628,-35746.5)"><stop offset="0" style="stop-color:rgb(235,193,161);stop-opacity:1"/><stop offset="0.9" style="stop-color:rgb(255,173,132);stop-opacity:1"/><stop offset="1" style="stop-color:rgb(255,173,132);stop-opacity:1"/></linearGradient>
        <linearGradient id="_Linear22" x1="0" y1="0" x2="1" y2="0" gradientUnits="userSpaceOnUse" gradientTransform="matrix(4.601,0.506,-0.506,4.601,445.473,206.677)"><stop offset="0" style="stop-color:rgb(235,193,161);stop-opacity:0.2"/><stop offset="0.05" style="stop-color:rgb(240,188,154);stop-opacity:0.24"/><stop offset="0.2" style="stop-color:rgb(249,180,143);stop-opacity:0.36"/><stop offset="0.41" style="stop-color:rgb(254,175,136);stop-opacity:0.53"/><stop offset="1" style="stop-color:rgb(255,174,134);stop-opacity:1"/></linearGradient>
        <linearGradient id="_Linear23" x1="0" y1="0" x2="1" y2="0" gradientUnits="userSpaceOnUse" gradientTransform="matrix(1126,0,0,1126,31709.7,-21251.8)"><stop offset="0" style="stop-color:white;stop-opacity:1"/><stop offset="0.29" style="stop-color:rgb(250,250,250);stop-opacity:1"/><stop offset="0.63" style="stop-color:rgb(236,236,236);stop-opacity:1"/><stop offset="0.99" style="stop-color:rgb(212,212,212);stop-opacity:1"/><stop offset="1" style="stop-color:rgb(212,212,212);stop-opacity:1"/></linearGradient>
        <linearGradient id="_Linear24" x1="0" y1="0" x2="1" y2="0" gradientUnits="userSpaceOnUse" gradientTransform="matrix(-95.53,-89.4,89.4,-95.53,2000.02,-16054.5)"><stop offset="0" style="stop-color:white;stop-opacity:1"/><stop offset="0.29" style="stop-color:rgb(250,250,250);stop-opacity:1"/><stop offset="0.63" style="stop-color:rgb(236,236,236);stop-opacity:1"/><stop offset="0.99" style="stop-color:rgb(212,212,212);stop-opacity:1"/><stop offset="1" style="stop-color:rgb(212,212,212);stop-opacity:1"/></linearGradient>
        <linearGradient id="_Linear25" x1="0" y1="0" x2="1" y2="0" gradientUnits="userSpaceOnUse" gradientTransform="matrix(43.6,211.78,-211.78,43.6,98939.6,-3884.29)"><stop offset="0" style="stop-color:white;stop-opacity:1"/><stop offset="0.29" style="stop-color:rgb(250,250,250);stop-opacity:1"/><stop offset="0.63" style="stop-color:rgb(236,236,236);stop-opacity:1"/><stop offset="0.99" style="stop-color:rgb(212,212,212);stop-opacity:1"/><stop offset="1" style="stop-color:rgb(212,212,212);stop-opacity:1"/></linearGradient>
        <linearGradient id="_Linear26" x1="0" y1="0" x2="1" y2="0" gradientUnits="userSpaceOnUse" gradientTransform="matrix(-4999,1327.3,-1327.3,-4999,284085,-58759)"><stop offset="0" style="stop-color:rgb(235,193,161);stop-opacity:1"/><stop offset="0.9" style="stop-color:rgb(255,173,132);stop-opacity:1"/><stop offset="1" style="stop-color:rgb(255,173,132);stop-opacity:1"/></linearGradient>
        <linearGradient id="_Linear27" x1="0" y1="0" x2="1" y2="0" gradientUnits="userSpaceOnUse" gradientTransform="matrix(199.8,169.6,-169.6,199.8,99904.2,-23598.1)"><stop offset="0" style="stop-color:white;stop-opacity:1"/><stop offset="0.29" style="stop-color:rgb(250,250,250);stop-opacity:1"/><stop offset="0.63" style="stop-color:rgb(236,236,236);stop-opacity:1"/><stop offset="0.99" style="stop-color:rgb(212,212,212);stop-opacity:1"/><stop offset="1" style="stop-color:rgb(212,212,212);stop-opacity:1"/></linearGradient>
        <linearGradient id="_Linear28" x1="0" y1="0" x2="1" y2="0" gradientUnits="userSpaceOnUse" gradientTransform="matrix(376.3,0,0,376.3,13506.4,-9549.29)"><stop offset="0" style="stop-color:rgb(235,193,161);stop-opacity:1"/><stop offset="0.9" style="stop-color:rgb(255,173,132);stop-opacity:1"/><stop offset="1" style="stop-color:rgb(255,173,132);stop-opacity:1"/></linearGradient>
        <linearGradient id="_Linear29" x1="0" y1="0" x2="1" y2="0" gradientUnits="userSpaceOnUse" gradientTransform="matrix(77.83,-377.9,377.9,77.83,1123.19,-21822.6)"><stop offset="0" style="stop-color:rgb(235,193,161);stop-opacity:1"/><stop offset="0.9" style="stop-color:rgb(255,173,132);stop-opacity:1"/><stop offset="1" style="stop-color:rgb(255,173,132);stop-opacity:1"/></linearGradient>
    </defs>
</svg>
